<svg width="24" height="25" viewBox="0 0 24 25" fill="none" xmlns="http://www.w3.org/2000/svg">
<path d="M20 3.5H4C3.447 3.5 3 3.948 3 4.5V20.5C3 21.052 3.447 21.5 4 21.5H20C20.553 21.5 21 21.052 21 20.5V4.5C21 3.948 20.553 3.5 20 3.5ZM8.339 18.837H5.667V10.247H8.339V18.837ZM7.003 9.074C6.147 9.074 5.455 8.38 5.455 7.526C5.455 6.672 6.146 5.978 7.003 5.978C7.857 5.978 8.551 6.671 8.551 7.526C8.551 8.381 7.857 9.074 7.003 9.074ZM18.338 18.837H15.669V14.66C15.669 13.664 15.651 12.383 14.281 12.383C12.891 12.383 12.68 13.469 12.68 14.59V18.838H10.013V10.248H12.573V11.422H12.61C12.965 10.747 13.837 10.035 15.134 10.035C17.838 10.035 18.337 11.813 18.337 14.127V18.837H18.338Z" fill="white"/>
</svg>
