<svg width="41" height="40" viewBox="0 0 41 40" fill="none" xmlns="http://www.w3.org/2000/svg">
<path fill-rule="evenodd" clip-rule="evenodd" d="M1.40186 0.555217C1.01235 0.66716 1.01776 1.46038 1.40835 1.54235C1.56578 1.57515 8.54888 1.60172 16.9267 1.60172C27.9125 1.60172 32.2708 1.63168 32.5613 1.70801C33.2948 1.9008 33.3203 1.9873 33.3203 4.29684V6.30674L33.0482 6.63069C32.8983 6.80879 32.7306 7.08978 32.6754 7.25543C32.6202 7.42052 32.4541 7.6331 32.3065 7.72695C32.1588 7.8208 31.9905 7.9972 31.9326 8.11819C31.8748 8.23974 31.6995 8.42349 31.5437 8.52751C31.3879 8.63154 31.2174 8.8119 31.165 8.92836C31.1125 9.04539 30.9442 9.22009 30.7911 9.31734C30.638 9.41515 30.4444 9.63677 30.3611 9.81091C30.2777 9.98448 30.1144 10.1756 29.9981 10.2355C29.8817 10.2954 29.7097 10.4769 29.615 10.6392C29.5209 10.8014 29.3521 10.979 29.2401 11.0338C29.1287 11.0886 28.9561 11.2673 28.8566 11.4301C28.7576 11.593 28.5774 11.7778 28.4568 11.8406C28.3356 11.9033 28.1836 12.0605 28.1192 12.19C28.0543 12.3189 27.4284 13.029 26.7283 13.7679C26.0283 14.5063 25.2639 15.347 25.0296 15.6354C24.7959 15.9243 23.7458 17.072 22.6969 18.1863C21.6484 19.3001 20.7893 20.2409 20.7888 20.2765C20.7877 20.3115 20.713 20.3652 20.6227 20.3952C20.5324 20.4252 20.3673 20.6191 20.2559 20.8266C20.1445 21.0341 19.9324 21.2687 19.7852 21.3484C19.6376 21.4282 19.472 21.5972 19.4163 21.7238C19.3611 21.8505 19.1799 22.0382 19.0133 22.1411C18.8466 22.2434 18.6724 22.4328 18.6259 22.5612C18.5788 22.6895 18.423 22.858 18.2791 22.9354C18.1352 23.0135 17.9654 23.2085 17.9021 23.3685C17.8382 23.5291 17.6711 23.7224 17.5299 23.7988C17.3892 23.8751 17.215 24.0554 17.1436 24.2002C17.0722 24.3443 16.9093 24.5128 16.7811 24.5733C16.6535 24.6344 16.4722 24.8164 16.3781 24.9781C16.284 25.1398 16.0881 25.3479 15.9426 25.44C15.7976 25.5322 15.6283 25.7346 15.5666 25.8895C15.5055 26.0444 15.3583 26.2174 15.2404 26.2734C15.1219 26.3299 14.9618 26.504 14.8844 26.6612C14.8065 26.8178 14.6226 27.0112 14.4754 27.0909C14.3283 27.1701 14.147 27.3589 14.0724 27.5098C13.9977 27.6608 13.8533 27.8118 13.7521 27.8451C13.6504 27.879 13.4659 28.0746 13.3421 28.2799C13.2182 28.4845 13.0245 28.6966 12.9114 28.7503C12.7989 28.804 12.6626 28.9708 12.6085 29.1206C12.55 29.2817 12.384 29.4564 12.2016 29.5469C12.0166 29.639 11.8532 29.812 11.7927 29.98C11.7299 30.1541 11.5876 30.3005 11.4156 30.3684C11.2636 30.4283 11.1143 30.5634 11.084 30.6686C11.0136 30.9123 10.6901 31.2837 10.5489 31.2837C10.4889 31.2837 10.3882 31.4149 10.3244 31.5754C10.2579 31.7433 10.0842 31.9288 9.91434 32.0136C9.74393 32.0984 9.59624 32.2561 9.56486 32.3867C9.53511 32.5111 9.36848 32.7005 9.19482 32.8079C9.02116 32.9148 8.82046 33.1206 8.74905 33.2653C8.67764 33.4095 8.4964 33.5842 8.34655 33.6537C8.1967 33.7233 8.07389 33.8313 8.07389 33.8934C8.07389 33.9562 7.82666 34.296 7.52425 34.6482C6.51097 35.8293 6.54127 35.7343 6.54127 37.7238V39.4561L6.95945 39.5161C7.50152 39.5935 39.0688 39.5947 39.44 39.5172C39.6894 39.4652 39.8868 38.7036 39.6991 38.5171C39.6866 38.5046 32.5218 38.473 23.7772 38.4464L7.87751 38.3983L7.70548 38.1756C7.55616 37.9828 7.53344 37.8002 7.53831 36.8096C7.54534 35.2062 7.60269 34.9253 7.93432 34.8653C8.12691 34.8303 8.24701 34.7178 8.38334 34.4441C8.49803 34.2146 8.65275 34.0506 8.78692 34.0184C9.00061 33.9658 9.0942 33.8505 9.1932 33.5175C9.22079 33.4242 9.36794 33.3026 9.51942 33.2472C9.69848 33.1822 9.84942 33.0279 9.94896 32.8079C10.0436 32.5993 10.1859 32.4489 10.3195 32.4161C10.5332 32.3641 10.6268 32.2482 10.7258 31.9158C10.7534 31.8225 10.9217 31.6828 11.0991 31.6054C11.3112 31.5132 11.4529 31.3713 11.5124 31.1927C11.5703 31.0202 11.7012 30.8851 11.8711 30.8235C12.0458 30.7596 12.1714 30.6262 12.2346 30.4362C12.299 30.2434 12.4343 30.1021 12.6409 30.0122C12.8427 29.924 12.9823 29.7804 13.0429 29.5978C13.1019 29.4219 13.2317 29.284 13.3945 29.2246C13.5363 29.1732 13.717 29.0007 13.7949 28.8424C13.8733 28.6841 14.0605 28.4879 14.2103 28.4071C14.3607 28.3257 14.5214 28.1555 14.5674 28.0283C14.6134 27.9016 14.7784 27.7168 14.9331 27.6184C15.0884 27.52 15.2923 27.3069 15.3865 27.1452C15.4806 26.9829 15.6569 26.811 15.7787 26.7624C15.9004 26.7144 16.0611 26.551 16.1363 26.3995C16.2109 26.2479 16.416 26.0354 16.5912 25.9274C16.7665 25.8194 16.9099 25.6645 16.9099 25.5831C16.9099 25.5016 17.0538 25.3467 17.2291 25.2387C17.4043 25.1308 17.6078 24.921 17.6813 24.7723C17.7549 24.6242 17.9334 24.4382 18.0784 24.3602C18.2239 24.2816 18.396 24.1012 18.4609 23.9587C18.5264 23.8168 18.6914 23.6444 18.8272 23.576C18.9635 23.5081 19.1361 23.3284 19.2113 23.1763C19.2859 23.0248 19.4639 22.8382 19.6056 22.7613C19.7479 22.6844 19.9486 22.4718 20.052 22.2886C20.1553 22.1055 20.3019 21.9551 20.3771 21.9551C20.4528 21.9551 20.6146 21.7889 20.7374 21.5859C20.8602 21.3824 21.0447 21.1884 21.148 21.1545C21.2508 21.12 21.4331 20.9295 21.5537 20.7305C21.6738 20.5315 21.8491 20.3426 21.9427 20.3115C22.0363 20.2804 22.1878 20.1108 22.2787 19.9344C22.3696 19.758 22.5389 19.5686 22.6552 19.5132C22.771 19.4578 22.9462 19.2707 23.0442 19.0971C23.1426 18.9236 23.3217 18.7342 23.4434 18.6765C23.5646 18.6183 23.7274 18.443 23.8048 18.2858C23.8827 18.1292 24.0688 17.9347 24.2187 17.8533C24.3691 17.7725 24.5368 17.6023 24.5925 17.4756C24.6477 17.3484 24.8289 17.1607 24.9955 17.0584C25.1621 16.9555 25.3363 16.7667 25.3829 16.6383C25.4299 16.51 25.5906 16.3387 25.741 16.2573C25.8909 16.1764 26.0753 15.9859 26.15 15.8344C26.2252 15.6823 26.3978 15.5025 26.5341 15.4347C26.6699 15.3662 26.8349 15.1938 26.9003 15.0519C26.9653 14.9094 27.1373 14.7291 27.2828 14.6505C27.4278 14.5725 27.6101 14.3797 27.6875 14.2231C27.7654 14.0659 27.9293 13.898 28.0521 13.8488C28.1749 13.8002 28.3556 13.6181 28.4541 13.444C28.552 13.2698 28.7316 13.0804 28.8533 13.0228C28.9745 12.9645 29.1373 12.7893 29.2147 12.6321C29.2926 12.4755 29.4787 12.281 29.6286 12.1996C29.779 12.1188 29.9467 11.9486 30.0024 11.8219C30.0576 11.6947 30.2388 11.507 30.4054 11.4047C30.572 11.3018 30.7462 11.113 30.7928 10.9846C30.8398 10.8563 31.0005 10.685 31.1509 10.6036C31.3008 10.5227 31.4852 10.3322 31.5599 10.1807C31.6351 10.0286 31.8077 9.84879 31.944 9.78094C32.0798 9.71253 32.2448 9.54009 32.3102 9.39819C32.3752 9.25571 32.5472 9.07536 32.6927 8.99677C32.8377 8.91875 33.0179 8.73048 33.0931 8.5784C33.1677 8.42688 33.3408 8.24652 33.4772 8.17868C33.614 8.11027 33.7936 7.90221 33.8775 7.71677C33.9608 7.53133 34.1339 7.30801 34.2621 7.22038L34.4948 7.06094L34.471 3.83776L34.4472 0.614581L34.1767 0.554085C33.8093 0.472107 1.68588 0.473238 1.40186 0.555217ZM1.43432 7.04511C1.31368 7.12709 1.30827 31.2532 1.42945 31.4488C1.57714 31.6868 2.024 31.5862 2.20523 31.2747C2.29882 31.1135 2.50115 30.9026 2.65479 30.8048C2.80844 30.707 2.93449 30.5657 2.93449 30.4905C2.93449 30.4159 3.1168 30.1976 3.34023 30.0065C3.56312 29.8154 3.74597 29.5995 3.74597 29.526C3.74597 29.453 3.88771 29.3055 4.06137 29.1986C4.23503 29.0912 4.44006 28.8656 4.51688 28.6966C4.5937 28.5275 4.75383 28.3426 4.87285 28.2855C4.99241 28.229 5.15254 28.056 5.22882 27.9011C5.30564 27.7462 5.47984 27.5636 5.61563 27.4957C5.75196 27.4273 5.91859 27.2509 5.98621 27.1033C6.05383 26.9558 6.22641 26.7653 6.36869 26.6799C6.51151 26.5951 6.66732 26.4091 6.71492 26.2672C6.76523 26.1173 6.92861 25.9455 7.10552 25.8573C7.28404 25.7685 7.45067 25.5932 7.50856 25.4327C7.56266 25.2829 7.73036 25.0861 7.8813 24.9956C8.03223 24.9052 8.17884 24.7327 8.20752 24.6129C8.23673 24.493 8.39848 24.3098 8.56727 24.2058C8.73606 24.1018 8.9557 23.8723 9.05525 23.6959C9.15641 23.5166 9.33819 23.3481 9.46694 23.3142C9.59353 23.2814 9.69686 23.1887 9.69686 23.1084C9.69686 23.0282 9.85267 22.8077 10.0436 22.6177C10.2346 22.4283 10.4277 22.2033 10.4737 22.1179C10.5819 21.9155 13.4178 18.7845 15.3545 16.7288C15.8133 16.242 16.1887 15.7993 16.1887 15.7456C16.1887 15.6913 16.3056 15.5839 16.4484 15.5065C16.5912 15.4296 16.7936 15.2153 16.8974 15.0304C17.0019 14.8461 17.1744 14.6612 17.2821 14.6194C17.3892 14.5781 17.5423 14.3995 17.6218 14.2225C17.7019 14.0455 17.881 13.8437 18.02 13.7742C18.159 13.7046 18.3105 13.5441 18.3565 13.4174C18.4025 13.2908 18.5794 13.1014 18.7498 12.9962C18.9202 12.891 19.1004 12.683 19.1501 12.5337C19.1999 12.3839 19.36 12.1973 19.5056 12.1188C19.6511 12.0402 19.8199 11.8502 19.8805 11.697C19.9432 11.5392 20.1071 11.3674 20.2581 11.3024C20.4198 11.2322 20.5746 11.0626 20.6514 10.8704C20.7206 10.6963 20.8716 10.5091 20.9862 10.4549C21.1009 10.4 21.2643 10.2293 21.3492 10.0749C21.4336 9.92059 21.6241 9.72158 21.7718 9.63338C21.9195 9.54462 22.0823 9.37501 22.1342 9.25628C22.1862 9.13755 22.3706 8.95267 22.5448 8.84525C22.7185 8.7384 22.8608 8.59423 22.8608 8.52525C22.8608 8.45628 23.1248 8.11366 23.4472 7.76313C23.8621 7.31196 24.0006 7.10391 23.9206 7.05076C23.7783 6.95635 1.57389 6.95069 1.43432 7.04511ZM37.7526 12.1363C37.091 12.8464 36.5002 13.5248 36.4396 13.6436C36.3796 13.7629 36.2027 13.9409 36.0469 14.0399C35.8911 14.1394 35.7033 14.3412 35.6303 14.4888C35.5573 14.6363 35.3928 14.8071 35.2651 14.8676C35.1375 14.9286 34.9557 15.1107 34.8616 15.2724C34.7674 15.4341 34.5683 15.6444 34.419 15.7394C34.2697 15.8338 34.1209 16 34.0879 16.1074C34.0555 16.2154 33.9078 16.3686 33.7606 16.4484C33.613 16.5281 33.4171 16.7226 33.3251 16.8809C33.2332 17.0392 33.0357 17.2461 32.8864 17.3411C32.7371 17.4361 32.5883 17.6017 32.5553 17.7097C32.5229 17.8171 32.3757 17.9703 32.2286 18.0501C32.0814 18.1298 31.8959 18.3373 31.8163 18.5108C31.7368 18.685 31.5761 18.8732 31.4587 18.9286C31.3419 18.9846 31.1688 19.1627 31.0746 19.3244C30.9805 19.4861 30.7771 19.6987 30.6224 19.7971C30.4676 19.8954 30.2967 20.0775 30.2426 20.2013C30.1885 20.3257 30.0473 20.4732 29.9288 20.5298C29.8103 20.5857 29.6361 20.7644 29.542 20.9261C29.4479 21.0878 29.2445 21.3009 29.0897 21.3993C28.935 21.4977 28.7641 21.6792 28.71 21.8036C28.6559 21.9274 28.5087 22.0862 28.3832 22.1563C28.2577 22.2265 28.0581 22.4453 27.939 22.6414C27.8206 22.8382 27.6285 23.0366 27.5127 23.083C27.3964 23.1288 27.2753 23.2769 27.2428 23.4115C27.206 23.5653 27.0691 23.7139 26.876 23.8106C26.6986 23.8988 26.5206 24.0826 26.4573 24.2431C26.3913 24.4088 26.2284 24.5739 26.0569 24.6491C25.8763 24.7282 25.7459 24.8645 25.7102 25.0132C25.6745 25.1624 25.5235 25.3202 25.3044 25.4366C25.0826 25.5548 24.9349 25.7108 24.8981 25.8646C24.8624 26.0133 24.7234 26.1648 24.5378 26.257C24.3653 26.3435 24.1743 26.5425 24.0921 26.7234C24.0055 26.9128 23.8584 27.0621 23.7231 27.0977C23.5998 27.1299 23.4721 27.2475 23.4396 27.3595C23.3644 27.6201 23.0442 27.9859 22.8916 27.9859C22.8267 27.9859 22.7169 28.1272 22.6476 28.2997C22.5719 28.4891 22.4172 28.6587 22.2554 28.7288C22.1012 28.7955 21.9254 28.9809 21.841 29.1664C21.7496 29.366 21.6062 29.5118 21.4629 29.5491C21.3119 29.5887 21.1864 29.7233 21.1009 29.9364C21.0171 30.1456 20.8743 30.3005 20.7017 30.3684C20.5453 30.43 20.3879 30.5883 20.3252 30.7466C20.2651 30.8981 20.0839 31.0853 19.9162 31.1689C19.7506 31.2515 19.6148 31.3804 19.6148 31.455C19.6148 31.5302 19.4742 31.7303 19.3021 31.9L18.9894 32.2081L19.3492 32.3585C19.6608 32.4891 20.2835 32.5089 24.0282 32.5089H28.347L28.6418 32.7678L28.9366 33.0273L34.036 33.0539C36.841 33.0686 39.2268 33.0573 39.3388 33.0284L39.5417 32.9764V22.0195C39.5417 13.6232 39.5162 11.0361 39.4335 10.9496C39.1846 10.6895 38.9374 10.8642 37.7526 12.1363Z" fill="white"/>
<path fill-rule="evenodd" clip-rule="evenodd" d="M1.20328 0.277166C0.703945 0.380063 0.590337 0.521971 0.590337 1.04607C0.590337 1.91674 -1.05481 1.83137 16.6805 1.88452C29.1595 1.9224 32.3237 1.95632 32.486 2.053C32.6867 2.17286 32.6889 2.19717 32.6889 4.22006C32.6889 6.86035 32.7252 6.75688 31.2461 8.33088C28.8116 10.9214 27.7161 12.1008 26.2874 13.6708C25.4688 14.5697 24.475 15.6541 24.078 16.0804C22.211 18.0881 19.9691 20.5259 18.8488 21.7669C17.2588 23.5275 15.7418 25.1812 13.8624 27.2024C13.0342 28.0929 11.8294 29.3972 11.1845 30.1005C10.5397 30.8038 9.50531 31.921 8.88534 32.5842C5.93424 35.7389 6.19013 35.2454 6.18418 37.7946C6.18039 39.3635 6.19067 39.4625 6.37028 39.6321C6.55529 39.8073 6.97781 39.8124 22.8478 39.8407C41.6115 39.8741 40.3531 39.9346 40.3531 39.0017C40.3531 38.1338 41.969 38.2164 23.913 38.1627C8.35084 38.1163 8.05708 38.1124 7.93157 37.9326C7.77306 37.7064 7.76765 36.3054 7.92292 35.7774C8.00893 35.4851 9.39712 33.9823 15.2869 27.8034C30.5185 11.8249 34.4163 7.70671 34.5867 7.41554C34.8696 6.92989 34.8577 0.684232 34.5732 0.415116C34.3752 0.227978 2.09321 0.0951162 1.20328 0.277166ZM34.5234 0.459215C34.657 0.575116 34.6727 0.932431 34.6727 3.86614V7.1436L34.347 7.55293C34.168 7.77794 31.5977 10.5064 28.6358 13.616C25.6733 16.7255 19.8068 22.8835 15.599 27.3008C11.3912 31.7174 7.90777 35.4065 7.858 35.4986C7.80823 35.5902 7.75088 36.1534 7.73033 36.7493C7.67298 38.4148 5.38784 38.2017 23.8848 38.2571C40.6766 38.3068 40.1605 38.2916 40.1832 38.7495C40.1892 38.8671 40.1995 39.069 40.206 39.1979C40.2336 39.7474 41.2246 39.7174 23.1015 39.7174C6.7982 39.7174 6.52446 39.7146 6.39841 39.5343C6.04622 39.0311 6.27506 35.5676 6.68892 35.1306C6.83066 34.9813 7.14173 34.6376 7.37976 34.3673C7.6178 34.0965 8.49042 33.1467 9.31813 32.2562C10.1464 31.3658 11.3512 30.0615 11.996 29.3587C12.6409 28.656 13.6753 27.5382 14.2952 26.8756C14.9152 26.213 15.6699 25.3966 15.9729 25.0613C16.2753 24.7266 16.5999 24.3852 16.694 24.3026C16.7881 24.2206 16.9504 24.0471 17.0548 23.917C17.1592 23.7876 17.3215 23.6213 17.4157 23.5484C17.5093 23.4755 17.6932 23.2674 17.8236 23.0859C17.954 22.9044 18.4122 22.3956 18.8417 21.9552C19.2713 21.5148 19.8079 20.9211 20.0346 20.6362C20.2613 20.3512 21.426 19.0701 22.6227 17.7901C23.8199 16.5095 25.0025 15.2256 25.2503 14.9367C25.4981 14.6472 25.7794 14.3379 25.8746 14.2492C26.0326 14.1016 26.2646 13.8529 26.5952 13.4746C26.6634 13.3972 26.8148 13.2411 26.9317 13.1286C27.048 13.0161 27.8335 12.1731 28.6764 11.2555C29.5198 10.3385 30.697 9.07321 31.2931 8.44395C32.8701 6.77893 32.8691 6.78176 32.8691 4.20989V2.17229L32.5764 2.00494C32.2994 1.8472 31.4073 1.83476 16.6848 1.79066C-0.724268 1.73808 0.680142 1.8031 0.680142 1.04494C0.680142 0.566635 0.759667 0.484657 1.35638 0.345576C1.88168 0.22289 34.3795 0.334268 34.5234 0.459215ZM1.15838 6.79476C0.999325 6.84282 0.841898 6.92876 0.807816 6.98586C0.62983 7.28663 0.776438 32.3642 0.957128 32.5553C1.13457 32.7425 1.13511 32.7425 1.33582 32.4926C1.44618 32.3552 1.65879 32.1794 1.80757 32.1025C2.07157 31.9656 2.45026 31.5699 4.01643 29.7969C4.43786 29.3197 5.2699 28.4004 5.86499 27.7548C6.46008 27.1091 7.29158 26.196 7.71301 25.7256C8.13444 25.2553 8.82421 24.4999 9.24618 24.0471C9.66761 23.5948 10.5197 22.6574 11.1396 21.9648C11.7596 21.2722 12.788 20.1415 13.4253 19.4512C14.0626 18.7614 14.6712 18.0745 14.7778 17.9252C14.8844 17.7754 15.2555 17.3525 15.6028 16.9856C15.9496 16.6187 16.4495 16.0708 16.7135 15.7683C16.9775 15.4653 17.7078 14.654 18.3364 13.9648C19.8837 12.2693 20.7211 11.35 22.019 9.92239C22.6227 9.25921 23.4401 8.35971 23.8367 7.92381C24.6125 7.07123 24.6482 6.93554 24.1369 6.78685C23.7101 6.66303 1.56899 6.67038 1.15838 6.79476ZM24.1694 6.92028L24.4799 7.05596L23.7831 7.82826C23.4001 8.25286 22.7412 8.97031 22.3197 9.42204C21.8983 9.87434 21.0668 10.7885 20.4717 11.4534C19.8766 12.1183 19.0446 13.0353 18.6232 13.4916C18.2017 13.9478 17.6743 14.5273 17.4508 14.7789C17.2279 15.0311 16.5328 15.8051 15.9058 16.4994C13.7386 18.9011 11.2879 21.6267 11.0114 21.9433C10.4667 22.5664 10.1123 22.957 6.94697 26.4227C6.54988 26.857 5.69782 27.7932 5.05351 28.5033C2.45838 31.3607 1.90494 31.9436 1.7843 31.9436C1.71506 31.9436 1.54086 32.0663 1.39749 32.2161C0.925752 32.7091 0.943063 33.145 0.911685 19.6451L0.881931 7.04861L1.16433 6.92028C1.5982 6.72296 23.7177 6.72296 24.1694 6.92028ZM39.5919 10.0383C39.4956 10.1146 39.3296 10.1768 39.2235 10.1768C39.091 10.1768 38.5895 10.6562 37.64 11.6903C34.7225 14.8671 29.7459 20.2099 25.081 25.1738C23.6371 26.7105 22.3722 28.0674 22.2705 28.189C22.1693 28.3105 21.9865 28.5011 21.8648 28.6124C21.743 28.7238 21.5597 28.9149 21.4574 29.0365C21.3552 29.1586 21.1929 29.3282 21.0966 29.4136C21.0008 29.4989 20.8391 29.6685 20.7379 29.7901C20.6362 29.9122 20.4539 30.1033 20.3321 30.2147C20.2104 30.3261 20.027 30.5166 19.9248 30.6387C19.8225 30.7603 19.6716 30.9237 19.5888 31.0011C18.7514 31.7921 18.5307 32.1307 18.5912 32.5344C18.6756 33.1003 18.4106 33.0709 23.537 33.0743C27.3872 33.0766 28.2901 33.1015 28.5866 33.2129C29.2515 33.4633 39.3452 33.4175 39.8246 33.162L40.1908 32.9664L40.1254 31.6779C40.0896 30.9689 40.0615 25.8523 40.0626 20.3071C40.0653 9.50402 40.0729 9.65837 39.5919 10.0383ZM39.8657 20.5734C39.8705 26.2311 39.9046 31.3307 39.9409 31.9057L40.0074 32.9511L39.6931 33.1071C39.1656 33.3683 29.113 33.3372 28.5541 33.0721C28.1787 32.8946 27.9515 32.8861 23.5418 32.8861H18.9229L18.8179 32.6458C18.7606 32.5141 18.7135 32.336 18.7135 32.25C18.7135 32.0714 18.6156 32.1822 21.208 29.4294C23.1713 27.3449 26.1316 24.1924 29.8038 20.2755C31.6735 18.2808 34.9248 14.7936 37.7033 11.8023C38.7301 10.6964 39.0904 10.3651 39.2668 10.364C39.3934 10.3628 39.5562 10.3227 39.6293 10.2746C39.8581 10.1231 39.857 10.0728 39.8657 20.5734Z" fill="white"/>
<path fill-rule="evenodd" clip-rule="evenodd" d="M0.905743 0.0684101C0.548689 0.16 0.5 0.282121 0.5 1.08608V1.86629L0.78402 1.96975C0.985809 2.04325 5.54311 2.07322 16.5555 2.07322C25.0734 2.07322 32.1073 2.09866 32.1858 2.13032C32.3097 2.18007 32.3281 2.45654 32.3281 4.25555C32.3281 6.69286 32.2664 7.0677 31.8271 7.2865C31.6399 7.37979 31.4993 7.53131 31.4641 7.67717C31.4295 7.82191 31.2894 7.97456 31.1092 8.06389C30.9458 8.14474 30.7522 8.33922 30.6797 8.4964C30.6072 8.653 30.4514 8.83053 30.3334 8.89103C30.2155 8.95209 30.05 9.14601 29.965 9.3224C29.8806 9.49936 29.6929 9.69555 29.549 9.75887C29.3937 9.82728 29.2493 9.98672 29.1947 10.1512C29.1379 10.3208 28.9961 10.4741 28.8279 10.5464C28.6753 10.6126 28.4935 10.7969 28.4178 10.9625C28.3431 11.1265 28.1619 11.3148 28.0153 11.3815C27.8671 11.4488 27.6988 11.6286 27.6366 11.7863C27.5749 11.9423 27.4137 12.1295 27.279 12.2024C27.1443 12.2753 26.9869 12.4534 26.929 12.5987C26.8716 12.7435 26.7023 12.9351 26.553 13.0245C26.4037 13.1132 26.2127 13.3128 26.1278 13.4671C26.0428 13.6215 25.8806 13.7917 25.7669 13.8459C25.6533 13.9002 25.4775 14.0913 25.3763 14.2705C25.2752 14.4503 25.1113 14.6239 25.0123 14.6567C24.9133 14.6895 24.7639 14.8308 24.6806 14.9705C24.5973 15.1101 23.5289 16.2827 22.3062 17.5768C18.8309 21.2557 17.4817 22.7432 17.4119 22.9716C17.3767 23.0875 17.2301 23.2464 17.0857 23.3244C16.9412 23.4024 16.7605 23.5918 16.6848 23.7456C16.6085 23.8994 16.4251 24.0905 16.2774 24.1702C16.1292 24.2505 16.0086 24.3522 16.0086 24.3975C16.0086 24.4421 15.8057 24.692 15.5574 24.9527C15.3096 25.2133 15.1056 25.4824 15.1046 25.5519C15.1035 25.6209 14.972 25.7408 14.8119 25.8188C14.6518 25.8963 14.4694 26.0727 14.4072 26.2106C14.3445 26.348 14.153 26.547 13.9815 26.6527C13.81 26.7584 13.6461 26.945 13.6168 27.0671C13.5855 27.1966 13.4551 27.3317 13.3025 27.3922C13.1592 27.4488 12.9687 27.6206 12.8795 27.7739C12.7902 27.9271 12.5852 28.1685 12.4245 28.3104C12.2633 28.4523 12.1313 28.6293 12.1313 28.7039C12.1313 28.7791 11.9879 28.9289 11.8126 29.0369C11.6368 29.1449 11.4323 29.3575 11.3571 29.509C11.2825 29.6605 11.1213 29.8239 11.0001 29.8719C10.8784 29.9206 10.7079 30.0823 10.6208 30.2315C10.5343 30.3808 10.3336 30.6165 10.1751 30.7562C10.0166 30.8953 9.86129 31.0931 9.83046 31.1949C9.79962 31.2967 9.65626 31.4442 9.51181 31.5223C9.36737 31.6003 9.18668 31.7897 9.11094 31.9435C9.03466 32.0972 8.85613 32.2855 8.71439 32.3624C8.57211 32.4393 8.37141 32.6519 8.26808 32.8351C8.16475 33.0182 8.01868 33.1686 7.94348 33.1686C7.86828 33.1686 7.72492 33.3371 7.62376 33.5435C7.52313 33.7498 7.31972 33.9839 7.17149 34.0642C7.02326 34.1445 6.90154 34.2547 6.90154 34.3101C6.90154 34.3655 6.69866 34.6148 6.45089 34.8647L6.00025 35.3187V37.4366C6.00025 39.3821 6.01431 39.5731 6.17228 39.7778L6.34486 40H23.2557C39.3696 40 40.1735 39.9921 40.3272 39.8315C40.5576 39.5907 40.5576 38.4305 40.3272 38.1897C40.1741 38.0297 39.3696 38.0189 24.1424 37.972C15.3296 37.9449 8.10903 37.9132 8.09658 37.9013C7.96837 37.7792 8.10199 36.0107 8.25401 35.8066C8.35139 35.6772 8.43146 35.5483 8.43254 35.5206C8.43362 35.4929 11.7548 31.9943 15.8133 27.7467C19.8712 23.4991 23.3011 19.8496 23.4347 19.6376C23.5689 19.425 23.782 19.1932 23.9086 19.1225C24.0352 19.0519 24.1981 18.8738 24.2706 18.7274C24.3431 18.5804 24.5026 18.413 24.6255 18.3542C24.7483 18.296 24.9279 18.1151 25.0242 17.9522C25.1205 17.7894 25.3055 17.5966 25.4353 17.5237C25.5652 17.4513 25.7285 17.276 25.7983 17.1347C25.8687 16.9939 26.0423 16.8062 26.1846 16.7186C26.3269 16.6304 26.5119 16.437 26.5957 16.2883C26.6801 16.1396 26.8603 15.9576 26.9961 15.8841C27.1324 15.8106 27.2898 15.6449 27.3456 15.5166C27.4018 15.3883 27.5663 15.2096 27.7118 15.1197C27.8568 15.0304 28.0461 14.8325 28.1322 14.681C28.2176 14.5289 28.3864 14.3576 28.5071 14.3005C28.6277 14.2428 28.8046 14.063 28.9009 13.9002C28.9972 13.7374 29.1822 13.5446 29.3126 13.4722C29.4424 13.3993 29.608 13.2201 29.6805 13.0736C29.753 12.9266 29.9126 12.7593 30.0354 12.7005C30.1582 12.6423 30.3378 12.4613 30.4341 12.2985C30.5304 12.1357 30.7154 11.9429 30.8452 11.87C30.9751 11.7976 31.1384 11.6223 31.2082 11.481C31.2786 11.3402 31.4522 11.1525 31.5945 11.0649C31.7368 10.9767 31.9218 10.7833 32.0056 10.6346C32.09 10.4859 32.2702 10.3039 32.406 10.2304C32.5423 10.1569 32.6997 9.99124 32.7555 9.8629C32.8117 9.73456 32.9762 9.5559 33.1217 9.46601C33.2667 9.37668 33.4544 9.18163 33.5388 9.03293C33.6227 8.88424 33.8109 8.69767 33.9565 8.61908C34.1025 8.53993 34.2215 8.43873 34.2215 8.39406C34.2215 8.34883 34.3454 8.17357 34.4969 8.00452C34.947 7.50078 34.9432 7.53526 34.9432 3.87618V0.390671L34.7057 0.195053L34.4677 0L17.7771 0.0107415C8.597 0.0169606 1.00474 0.0429684 0.905743 0.0684101ZM34.5732 0.414982C34.8577 0.684099 34.8696 6.92975 34.5867 7.41541C34.4163 7.70657 30.5185 11.8247 15.2869 27.8033C9.39712 33.9822 8.00894 35.4849 7.92293 35.7772C7.76766 36.3053 7.77307 37.7063 7.93158 37.9324C8.05709 38.1122 8.35085 38.1162 23.913 38.1625C41.9691 38.2163 40.3531 38.1337 40.3531 39.0016C40.3531 39.9344 41.6115 39.8739 22.8478 39.8406C6.97782 39.8123 6.5553 39.8072 6.37028 39.6319C6.19068 39.4623 6.1804 39.3634 6.18418 37.7945C6.19013 35.2452 5.93425 35.7388 8.88535 32.584C9.50532 31.9209 10.5397 30.8037 11.1846 30.1004C11.8294 29.397 13.0342 28.0927 13.8625 27.2023C15.7419 25.1811 17.2588 23.5273 18.8488 21.7668C19.9692 20.5258 22.211 18.0879 24.078 16.0803C24.4751 15.654 25.4689 14.5696 26.2874 13.6707C27.7161 12.1006 28.8116 10.9213 31.2461 8.33074C32.7252 6.75675 32.6889 6.86021 32.6889 4.21993C32.6889 2.19703 32.6867 2.17272 32.486 2.05286C32.3237 1.95618 29.1595 1.92226 16.6805 1.88438C-1.05481 1.83124 0.590345 1.91661 0.590345 1.04594C0.590345 0.521837 0.703953 0.379929 1.20329 0.277032C2.09322 0.0949822 34.3752 0.227844 34.5732 0.414982ZM0.795922 6.59731C0.485935 6.72848 0.493508 6.37965 0.520017 19.9333C0.543821 32.0215 0.554099 32.7672 0.705035 33.0075C0.914939 33.3422 1.10212 33.3292 1.44457 32.9566C1.59929 32.7881 1.87141 32.536 2.04885 32.3963C2.2263 32.2567 2.7819 31.663 3.28448 31.0773C3.78651 30.491 4.37998 29.816 4.60287 29.5763C4.82576 29.3365 5.00807 29.094 5.00807 29.0369C5.00807 28.9798 5.13196 28.8661 5.28289 28.7847C5.43383 28.7033 5.60208 28.5326 5.6578 28.4059C5.71298 28.2793 5.89746 28.0893 6.06787 27.9842C6.23828 27.879 6.42114 27.6743 6.47361 27.5285C6.52609 27.3832 6.65322 27.2249 6.75547 27.1774C6.85826 27.1299 7.03516 26.9456 7.14877 26.7686C7.26238 26.5911 7.47282 26.3717 7.61618 26.2801C7.76009 26.1891 7.90237 26.0331 7.93212 25.9336C7.96242 25.8341 8.14852 25.6175 8.34598 25.4513C8.54344 25.2857 8.7052 25.0872 8.7052 25.0103C8.7052 24.9329 8.84856 24.7813 9.02384 24.6734C9.19912 24.5654 9.40416 24.3528 9.47881 24.2013C9.55401 24.0498 9.70928 23.8813 9.82397 23.8264C9.93865 23.7722 10.0972 23.585 10.1767 23.4109C10.2562 23.2367 10.4418 23.0293 10.5889 22.9501C10.7361 22.8704 10.8816 22.7217 10.9124 22.6199C10.9438 22.5176 11.1202 22.309 11.3052 22.1558C11.4902 22.0025 11.6953 21.7724 11.7613 21.6441C11.8267 21.5158 11.9755 21.3654 12.0918 21.31C12.2081 21.2546 12.3645 21.0855 12.4391 20.934C12.5143 20.7825 12.7188 20.5705 12.8946 20.4619C13.0699 20.3539 13.2133 20.216 13.2133 20.156C13.2133 20.0955 13.5682 19.6726 14.002 19.2153C14.9163 18.2519 16.258 16.7644 16.8823 16.0209C17.1208 15.7371 17.4833 15.33 17.6889 15.1163C17.8939 14.9026 18.087 14.6431 18.1184 14.5396C18.1503 14.4362 18.2786 14.3028 18.4035 14.2428C18.529 14.1829 18.6973 14.0144 18.7779 13.8674C18.8585 13.721 19.0403 13.5316 19.182 13.4462C19.3237 13.3614 19.5093 13.1658 19.5942 13.0114C19.6786 12.8571 19.8404 12.6869 19.9529 12.6332C20.0654 12.5795 20.2245 12.389 20.3062 12.2098C20.3884 12.0294 20.5669 11.8349 20.7049 11.775C20.8423 11.7156 21.0171 11.5302 21.0928 11.3628C21.1691 11.1949 21.3362 11.0083 21.4644 10.9473C21.5932 10.8857 21.7544 10.6957 21.8226 10.5244C21.8913 10.3531 22.0514 10.1631 22.1791 10.1026C22.3062 10.0416 22.488 9.85951 22.5821 9.69724C22.6768 9.53442 22.8488 9.35237 22.9652 9.29187C23.0815 9.23138 23.2416 9.03802 23.3217 8.86163C23.4012 8.68579 23.5543 8.5077 23.6614 8.46643C23.7685 8.42516 23.9416 8.24028 24.0455 8.05541C24.1499 7.8711 24.3512 7.65682 24.4935 7.5805C24.8462 7.3894 24.9273 7.01739 24.6736 6.75223L24.4788 6.54869L12.7372 6.5306C5.95102 6.52042 0.911694 6.54813 0.795922 6.59731ZM24.1369 6.78672C24.6482 6.93541 24.6125 7.07109 23.8367 7.92367C23.4401 8.35958 22.6227 9.25908 22.019 9.92226C20.7211 11.3498 19.8837 12.2691 18.3364 13.9647C17.7078 14.6539 16.9775 15.4652 16.7135 15.7682C16.4495 16.0707 15.9496 16.6185 15.6028 16.9854C15.2555 17.3524 14.8844 17.7753 14.7778 17.9251C14.6712 18.0743 14.0626 18.7613 13.4253 19.451C12.788 20.1413 11.7596 21.2721 11.1397 21.9647C10.5197 22.6572 9.66762 23.5946 9.24619 24.0469C8.82421 24.4998 8.13445 25.2551 7.71302 25.7255C7.29159 26.1959 6.46009 27.109 5.865 27.7546C5.26991 28.4003 4.43787 29.3196 4.01644 29.7968C2.45027 31.5698 2.07158 31.9655 1.80757 32.1023C1.6588 32.1792 1.44619 32.3551 1.33583 32.4924C1.13512 32.7423 1.13458 32.7423 0.957136 32.5552C0.776446 32.3641 0.629838 7.2865 0.807824 6.98572C0.841906 6.92862 0.999333 6.84269 1.15838 6.79463C1.569 6.67025 23.7101 6.6629 24.1369 6.78672ZM39.6493 9.42756C39.5844 9.53611 39.3923 9.68594 39.2214 9.76057C39.0412 9.83972 38.3509 10.4961 37.5703 11.3317C36.8329 12.1216 35.1288 13.9381 33.7828 15.3679C32.4374 16.7983 31.3364 18.0382 31.3364 18.1241C31.3364 18.21 31.3007 18.2801 31.2575 18.2801C31.1698 18.2801 29.9234 19.5358 29.7118 19.8366C29.6383 19.9412 29.4695 20.0989 29.3369 20.1877C29.2044 20.2759 29.0729 20.4252 29.0443 20.519C29.0156 20.6129 28.869 20.7661 28.7175 20.8594C28.5666 20.9521 28.3534 21.1731 28.2441 21.3501C28.1349 21.5271 27.972 21.6967 27.8828 21.7272C27.7929 21.7577 27.6534 21.9285 27.5722 22.106C27.4911 22.2835 27.2866 22.5142 27.1173 22.6188C26.9485 22.7228 26.7889 22.8936 26.7624 22.9982C26.7364 23.1022 26.5968 23.2514 26.4518 23.33C26.3074 23.4081 26.1137 23.6014 26.0218 23.7597C25.9298 23.9175 25.7242 24.13 25.5652 24.2307C25.4061 24.3319 25.2557 24.4958 25.2308 24.5948C25.2059 24.6943 25.0442 24.8628 24.8716 24.9696C24.6985 25.0759 24.5135 25.2828 24.461 25.4287C24.4058 25.5813 24.2565 25.7374 24.111 25.7945C23.9714 25.8499 23.7718 26.0455 23.6679 26.2293C23.564 26.4136 23.4001 26.59 23.3038 26.6222C23.2075 26.6544 23.0495 26.8416 22.9538 27.0383C22.8575 27.2351 22.6968 27.4188 22.5967 27.4459C22.4967 27.4736 22.3322 27.6416 22.2316 27.8202C22.1309 27.9989 21.947 28.1928 21.8231 28.2516C21.6992 28.311 21.5213 28.4913 21.4271 28.653C21.333 28.8147 21.1258 29.0295 20.9667 29.1307C20.8077 29.2319 20.6567 29.3987 20.6308 29.5022C20.6048 29.6051 20.4658 29.7532 20.3208 29.8318C20.1764 29.9098 19.9827 30.1032 19.8907 30.2615C19.7987 30.4192 19.5964 30.6295 19.4417 30.7279C19.2864 30.8263 19.122 31.0112 19.0754 31.1378C19.0295 31.265 18.8726 31.4335 18.7265 31.5121C18.5404 31.6127 18.4187 31.7869 18.3175 32.0978C18.238 32.3415 18.1038 32.6208 18.0189 32.7186C17.8068 32.9634 17.9529 33.1816 18.423 33.3241C18.6946 33.4061 21.5937 33.444 29.4446 33.4671L40.0978 33.4982L40.2487 33.3037C40.3888 33.1234 40.4002 32.2211 40.3991 21.4609L40.398 9.81371L40.2081 9.54742C39.9685 9.21216 39.7991 9.17597 39.6493 9.42756ZM39.9804 10.0596C40.0323 10.1603 40.0642 14.1852 40.0626 20.307C40.0615 25.8522 40.0897 30.9688 40.1254 31.6777L40.1908 32.9662L39.8246 33.1618C39.3453 33.4174 29.2515 33.4632 28.5866 33.2127C28.2901 33.1013 27.3872 33.0765 23.537 33.0742C18.4106 33.0708 18.6756 33.1002 18.5913 32.5343C18.5307 32.1306 18.7514 31.7919 19.5888 31.001C19.6716 30.9235 19.8225 30.7601 19.9248 30.6386C20.027 30.5165 20.2104 30.3259 20.3322 30.2146C20.4539 30.1032 20.6362 29.9121 20.7379 29.79C20.8391 29.6684 21.0008 29.4988 21.0966 29.4134C21.1929 29.3281 21.3552 29.1584 21.4574 29.0363C21.5597 28.9148 21.7431 28.7237 21.8648 28.6123C21.9865 28.5009 22.1694 28.3104 22.2705 28.1888C22.3722 28.0673 23.6371 26.7104 25.081 25.1737C29.7459 20.2098 34.7225 14.867 37.6401 11.6902C38.5895 10.6561 39.091 10.1767 39.2235 10.1767C39.3296 10.1767 39.4957 10.1145 39.5919 10.0382C39.8208 9.85724 39.8787 9.86064 39.9804 10.0596Z" fill="white"/>
<path fill-rule="evenodd" clip-rule="evenodd" d="M1.35642 0.345429C0.759708 0.48451 0.680183 0.566489 0.680183 1.04479C0.680183 1.80296 -0.724229 1.73794 16.6848 1.79052C31.4073 1.83462 32.2994 1.84706 32.5764 2.00479L32.8691 2.17214V4.20974C32.8691 6.78161 32.8702 6.77879 31.2932 8.4438C30.697 9.07306 29.5198 10.3384 28.6764 11.2554C27.8336 12.173 27.048 13.016 26.9317 13.1285C26.8149 13.241 26.6634 13.397 26.5952 13.4745C26.2647 13.8527 26.0326 14.1015 25.8746 14.249C25.7794 14.3378 25.4981 14.6471 25.2503 14.9365C25.0026 15.2254 23.82 16.5094 22.6227 17.79C21.4261 19.07 20.2613 20.3511 20.0346 20.636C19.808 20.921 19.2713 21.5146 18.8418 21.955C18.4122 22.3955 17.954 22.9043 17.8236 23.0858C17.6932 23.2673 17.5093 23.4753 17.4157 23.5483C17.3216 23.6212 17.1593 23.7874 17.0549 23.9169C16.9505 24.0469 16.7882 24.2205 16.694 24.3025C16.5999 24.385 16.2753 24.7265 15.9729 25.0612C15.6699 25.3965 14.9153 26.2129 14.2953 26.8755C13.6753 27.5381 12.6409 28.6558 11.9961 29.3586C11.3512 30.0613 10.1464 31.3656 9.31817 32.2561C8.49046 33.1466 7.61784 34.0964 7.3798 34.3672C7.14177 34.6374 6.8307 34.9812 6.68896 35.1304C6.2751 35.5675 6.04626 39.0309 6.39845 39.5341C6.5245 39.7145 6.79824 39.7173 23.1015 39.7173C41.2247 39.7173 40.2336 39.7473 40.206 39.1977C40.1995 39.0688 40.1892 38.867 40.1833 38.7494C40.1606 38.2914 40.6767 38.3067 23.8849 38.257C5.38788 38.2015 7.67302 38.4147 7.73037 36.7491C7.75092 36.1532 7.80827 35.5901 7.85804 35.4985C7.90781 35.4063 11.3912 31.7173 15.5991 27.3006C19.8069 22.8834 25.6734 16.7254 28.6358 13.6158C31.5978 10.5063 34.168 7.7778 34.3471 7.55278L34.6728 7.14345V3.866C34.6728 0.932285 34.6571 0.57497 34.5234 0.459069C34.3795 0.334122 1.88172 0.222744 1.35642 0.345429ZM34.1767 0.554051L34.4472 0.614547L34.471 3.83772L34.4948 7.06091L34.2621 7.22034C34.1339 7.30797 33.9608 7.53129 33.8775 7.71674C33.7936 7.90218 33.614 8.11023 33.4772 8.17864C33.3408 8.24649 33.1677 8.42684 33.0931 8.57836C33.0179 8.73045 32.8377 8.91871 32.6927 8.99674C32.5472 9.07532 32.3752 9.25568 32.3103 9.39815C32.2448 9.54006 32.0798 9.7125 31.944 9.78091C31.8077 9.84875 31.6351 10.0285 31.5599 10.1806C31.4852 10.3321 31.3008 10.5227 31.1509 10.6035C31.0005 10.6849 30.8398 10.8562 30.7928 10.9846C30.7463 11.1129 30.5721 11.3018 30.4054 11.4047C30.2388 11.507 30.0576 11.6947 30.0024 11.8219C29.9467 11.9485 29.779 12.1187 29.6286 12.1996C29.4787 12.281 29.2926 12.4755 29.2147 12.6321C29.1373 12.7892 28.9745 12.9645 28.8533 13.0227C28.7316 13.0804 28.552 13.2698 28.4541 13.4439C28.3556 13.6181 28.1749 13.8001 28.0521 13.8488C27.9293 13.8979 27.7654 14.0659 27.6875 14.223C27.6101 14.3796 27.4278 14.5724 27.2828 14.6504C27.1373 14.729 26.9653 14.9094 26.9004 15.0519C26.8349 15.1938 26.6699 15.3662 26.5341 15.4346C26.3978 15.5025 26.2252 15.6822 26.15 15.8343C26.0753 15.9859 25.8909 16.1764 25.741 16.2572C25.5906 16.3386 25.4299 16.51 25.3829 16.6383C25.3363 16.7666 25.1621 16.9555 24.9955 17.0584C24.8289 17.1607 24.6477 17.3484 24.5925 17.4756C24.5368 17.6022 24.3691 17.7724 24.2187 17.8533C24.0688 17.9347 23.8827 18.1292 23.8048 18.2858C23.7274 18.443 23.5646 18.6182 23.4434 18.6765C23.3217 18.7341 23.1426 18.9235 23.0442 19.0971C22.9463 19.2707 22.771 19.4578 22.6552 19.5132C22.5389 19.5686 22.3696 19.758 22.2787 19.9344C22.1878 20.1108 22.0363 20.2804 21.9427 20.3115C21.8491 20.3426 21.6738 20.5314 21.5537 20.7304C21.4331 20.9295 21.2508 21.12 21.148 21.1545C21.0447 21.1884 20.8602 21.3823 20.7374 21.5859C20.6146 21.7888 20.4528 21.955 20.3771 21.955C20.3019 21.955 20.1553 22.1054 20.052 22.2886C19.9486 22.4718 19.7479 22.6844 19.6056 22.7613C19.4639 22.8382 19.2859 23.0247 19.2113 23.1762C19.1361 23.3283 18.9635 23.5081 18.8272 23.576C18.6914 23.6444 18.5264 23.8168 18.4609 23.9587C18.396 24.1012 18.224 24.2815 18.0784 24.3601C17.9334 24.4382 17.7549 24.6242 17.6813 24.7723C17.6078 24.921 17.4044 25.1307 17.2291 25.2387C17.0538 25.3467 16.9099 25.5016 16.9099 25.583C16.9099 25.6644 16.7665 25.8194 16.5912 25.9273C16.416 26.0353 16.2109 26.2479 16.1363 26.3994C16.0611 26.5509 15.9004 26.7143 15.7787 26.7624C15.657 26.811 15.4806 26.9829 15.3865 27.1451C15.2923 27.3068 15.0884 27.52 14.9331 27.6184C14.7784 27.7167 14.6134 27.9016 14.5674 28.0283C14.5214 28.1555 14.3607 28.3256 14.2103 28.4071C14.0605 28.4879 13.8733 28.6841 13.7949 28.8424C13.717 29.0007 13.5363 29.1731 13.3945 29.2246C13.2317 29.2839 13.1019 29.4219 13.0429 29.5977C12.9823 29.7803 12.8427 29.9239 12.6409 30.0121C12.4343 30.102 12.299 30.2434 12.2346 30.4362C12.1714 30.6261 12.0458 30.7596 11.8711 30.8235C11.7012 30.8851 11.5703 31.0202 11.5124 31.1926C11.4529 31.3713 11.3112 31.5132 11.0991 31.6054C10.9217 31.6828 10.7534 31.8225 10.7258 31.9157C10.6268 32.2482 10.5332 32.3641 10.3195 32.4161C10.1859 32.4489 10.0436 32.5993 9.94897 32.8079C9.84942 33.0278 9.69849 33.1822 9.51942 33.2472C9.36794 33.3026 9.22079 33.4242 9.1932 33.5174C9.0942 33.8504 9.00061 33.9658 8.78692 34.0184C8.65275 34.0506 8.49803 34.2145 8.38334 34.4441C8.24701 34.7177 8.12691 34.8302 7.93432 34.8653C7.60269 34.9252 7.54535 35.2062 7.53831 36.8096C7.53344 37.8001 7.55617 37.9827 7.70548 38.1755L7.87752 38.3983L23.7772 38.4464C32.5218 38.4729 39.6866 38.5046 39.6991 38.517C39.8868 38.7036 39.6894 39.4651 39.44 39.5172C39.0688 39.5946 7.50153 39.5935 6.95945 39.516L6.54127 39.4561V37.7238C6.54127 35.7343 6.51097 35.8292 7.52425 34.6482C7.82666 34.296 8.07389 33.9562 8.07389 33.8934C8.07389 33.8312 8.1967 33.7232 8.34655 33.6537C8.49641 33.5842 8.67764 33.4095 8.74905 33.2653C8.82046 33.1206 9.02117 32.9148 9.19483 32.8079C9.36848 32.7005 9.53511 32.5111 9.56486 32.3867C9.59624 32.2561 9.74393 32.0984 9.91434 32.0136C10.0842 31.9288 10.2579 31.7433 10.3244 31.5754C10.3882 31.4148 10.4889 31.2837 10.5489 31.2837C10.6901 31.2837 11.0136 30.9122 11.084 30.6685C11.1143 30.5634 11.2636 30.4283 11.4156 30.3683C11.5876 30.3005 11.7299 30.1541 11.7927 29.9799C11.8533 29.812 12.0166 29.639 12.2016 29.5468C12.384 29.4564 12.55 29.2817 12.6085 29.1206C12.6626 28.9707 12.7989 28.8039 12.9114 28.7502C13.0245 28.6965 13.2182 28.4845 13.3421 28.2798C13.4659 28.0746 13.6504 27.879 13.7521 27.8451C13.8533 27.8117 13.9977 27.6608 14.0724 27.5098C14.147 27.3589 14.3283 27.17 14.4754 27.0909C14.6226 27.0112 14.8065 26.8178 14.8844 26.6612C14.9618 26.504 15.1219 26.3299 15.2404 26.2733C15.3583 26.2174 15.5055 26.0444 15.5666 25.8895C15.6283 25.7345 15.7976 25.5321 15.9426 25.44C16.0881 25.3478 16.284 25.1398 16.3781 24.9781C16.4722 24.8164 16.6535 24.6343 16.7811 24.5733C16.9093 24.5128 17.0722 24.3443 17.1436 24.2001C17.215 24.0554 17.3892 23.875 17.5299 23.7987C17.6711 23.7224 17.8382 23.529 17.9021 23.3685C17.9654 23.2085 18.1352 23.0134 18.2791 22.9354C18.423 22.8579 18.5788 22.6895 18.6259 22.5611C18.6724 22.4328 18.8466 22.2434 19.0133 22.1411C19.1799 22.0382 19.3611 21.8505 19.4163 21.7238C19.472 21.5972 19.6376 21.4281 19.7852 21.3484C19.9324 21.2687 20.1445 21.034 20.2559 20.8266C20.3674 20.6191 20.5324 20.4251 20.6227 20.3952C20.713 20.3652 20.7877 20.3115 20.7888 20.2765C20.7893 20.2408 21.6484 19.3001 22.6969 18.1863C23.7458 17.0719 24.7959 15.9242 25.0296 15.6353C25.2639 15.347 26.0283 14.5063 26.7283 13.7679C27.4284 13.029 28.0543 12.3189 28.1192 12.19C28.1836 12.0605 28.3356 11.9033 28.4568 11.8406C28.5774 11.7778 28.7576 11.5929 28.8566 11.4301C28.9561 11.2673 29.1287 11.0886 29.2401 11.0338C29.3521 10.9789 29.5209 10.8014 29.615 10.6391C29.7097 10.4769 29.8817 10.2954 29.9981 10.2355C30.1144 10.1755 30.2778 9.98444 30.3611 9.81087C30.4444 9.63674 30.6381 9.41511 30.7911 9.3173C30.9443 9.22006 31.1125 9.04536 31.165 8.92833C31.2175 8.81186 31.3879 8.63151 31.5437 8.52748C31.6995 8.42345 31.8748 8.23971 31.9326 8.11815C31.9905 7.99716 32.1588 7.82077 32.3065 7.72691C32.4542 7.63306 32.6202 7.42048 32.6754 7.25539C32.7306 7.08974 32.8983 6.80875 33.0482 6.63066L33.3203 6.3067V4.29681C33.3203 1.98727 33.2949 1.90076 32.5613 1.70797C32.2708 1.63165 27.9125 1.60168 16.9267 1.60168C8.54888 1.60168 1.56578 1.57511 1.40836 1.54232C1.01776 1.46034 1.01235 0.667125 1.40186 0.555182C1.68588 0.473203 33.8093 0.472072 34.1767 0.554051ZM1.16437 6.92013L0.881971 7.04847L0.911726 19.6449C0.943103 33.1449 0.925792 32.709 1.39754 32.216C1.5409 32.0661 1.7151 31.9435 1.78434 31.9435C1.90498 31.9435 2.45842 31.3606 5.05355 28.5032C5.69787 27.7931 6.54992 26.8568 6.94701 26.4226C10.1123 22.9569 10.4667 22.5662 11.0115 21.9432C11.2879 21.6266 13.7386 18.9009 15.9058 16.4992C16.5328 15.8049 17.228 15.0309 17.4509 14.7788C17.6743 14.5272 18.2018 13.9477 18.6232 13.4914C19.0446 13.0352 19.8767 12.1181 20.4718 11.4533C21.0669 10.7884 21.8984 9.87419 22.3198 9.4219C22.7412 8.97016 23.4001 8.25271 23.7832 7.82811L24.48 7.05582L24.1694 6.92013C23.7177 6.72282 1.59824 6.72282 1.16437 6.92013ZM23.9206 7.05073C24.0006 7.10387 23.8622 7.31193 23.4472 7.7631C23.1248 8.11363 22.8608 8.45624 22.8608 8.52522C22.8608 8.59419 22.7185 8.73836 22.5448 8.84522C22.3706 8.95264 22.1862 9.13752 22.1342 9.25624C22.0823 9.37497 21.9195 9.54458 21.7718 9.63334C21.6241 9.72154 21.4336 9.92055 21.3493 10.0749C21.2643 10.2292 21.1009 10.4 20.9862 10.4548C20.8716 10.5091 20.7206 10.6962 20.6514 10.8704C20.5746 11.0626 20.4198 11.2322 20.2581 11.3023C20.1071 11.3673 19.9432 11.5392 19.8805 11.6969C19.8199 11.8502 19.6511 12.0401 19.5056 12.1187C19.36 12.1973 19.1999 12.3839 19.1501 12.5337C19.1004 12.683 18.9202 12.891 18.7498 12.9962C18.5794 13.1013 18.4025 13.2907 18.3565 13.4174C18.3105 13.544 18.159 13.7046 18.02 13.7741C17.881 13.8437 17.7019 14.0455 17.6218 14.2225C17.5423 14.3994 17.3892 14.5781 17.2821 14.6194C17.1744 14.6612 17.0019 14.8461 16.8974 15.0304C16.7936 15.2153 16.5912 15.4295 16.4484 15.5064C16.3056 15.5839 16.1887 15.6913 16.1887 15.7456C16.1887 15.7993 15.8133 16.242 15.3545 16.7288C13.4178 18.7844 10.5819 21.9155 10.4737 22.1179C10.4277 22.2032 10.2346 22.4283 10.0436 22.6177C9.85267 22.8076 9.69686 23.0281 9.69686 23.1084C9.69686 23.1887 9.59354 23.2814 9.46694 23.3142C9.33819 23.3481 9.15641 23.5166 9.05525 23.6958C8.95571 23.8722 8.73607 24.1018 8.56728 24.2058C8.39849 24.3098 8.23673 24.493 8.20752 24.6128C8.17885 24.7327 8.03224 24.9051 7.8813 24.9956C7.73037 25.0861 7.56266 25.2828 7.50856 25.4326C7.45067 25.5932 7.28405 25.7685 7.10552 25.8572C6.92862 25.9454 6.76524 26.1173 6.71493 26.2671C6.66732 26.409 6.51151 26.595 6.36869 26.6798C6.22641 26.7652 6.05384 26.9557 5.98621 27.1033C5.91859 27.2509 5.75197 27.4273 5.61564 27.4957C5.47985 27.5635 5.30565 27.7461 5.22883 27.901C5.15255 28.056 4.99241 28.229 4.87286 28.2855C4.75384 28.3426 4.5937 28.5275 4.51688 28.6965C4.44006 28.8656 4.23503 29.0912 4.06137 29.1986C3.88771 29.3054 3.74597 29.453 3.74597 29.5259C3.74597 29.5994 3.56312 29.8154 3.34023 30.0065C3.1168 30.1976 2.93449 30.4158 2.93449 30.4904C2.93449 30.5656 2.80844 30.707 2.6548 30.8048C2.50116 30.9026 2.29883 31.1135 2.20523 31.2746C2.024 31.5861 1.57714 31.6868 1.42945 31.4488C1.30827 31.2531 1.31368 7.12705 1.43432 7.04507C1.5739 6.95066 23.7783 6.95631 23.9206 7.05073ZM39.6293 10.2745C39.5563 10.3225 39.3934 10.3627 39.2668 10.3638C39.0905 10.3649 38.7302 10.6962 37.7034 11.8021C34.9249 14.7935 31.6735 18.2807 29.8038 20.2753C26.1316 24.1922 23.1713 27.3447 21.2081 29.4292C18.6156 32.182 18.7135 32.0712 18.7135 32.2499C18.7135 32.3358 18.7606 32.5139 18.818 32.6456L18.9229 32.8859H23.5419C27.9515 32.8859 28.1787 32.8944 28.5542 33.0719C29.113 33.3371 39.1657 33.3682 39.6931 33.107L40.0075 32.9509L39.9409 31.9056C39.9047 31.3306 39.8706 26.2309 39.8657 20.5733C39.8571 10.0726 39.8581 10.123 39.6293 10.2745ZM39.4335 10.9495C39.5162 11.036 39.5417 13.6232 39.5417 22.0195V32.9764L39.3388 33.0284C39.2268 33.0572 36.841 33.0685 34.036 33.0538L28.9366 33.0273L28.6418 32.7678L28.347 32.5088H24.0282C20.2835 32.5088 19.6608 32.489 19.3492 32.3584L18.9895 32.208L19.3021 31.8999C19.4742 31.7303 19.6148 31.5302 19.6148 31.455C19.6148 31.3803 19.7506 31.2514 19.9162 31.1689C20.0839 31.0852 20.2651 30.8981 20.3252 30.7466C20.3879 30.5883 20.5453 30.43 20.7017 30.3683C20.8743 30.3005 21.0171 30.1456 21.1009 29.9364C21.1864 29.7232 21.3119 29.5887 21.4629 29.5491C21.6062 29.5118 21.7496 29.3659 21.841 29.1663C21.9254 28.9809 22.1012 28.7955 22.2554 28.7288C22.4172 28.6586 22.5719 28.489 22.6476 28.2996C22.7169 28.1272 22.8267 27.9859 22.8916 27.9859C23.0442 27.9859 23.3644 27.6201 23.4396 27.3594C23.4721 27.2475 23.5998 27.1299 23.7231 27.0977C23.8584 27.062 24.0055 26.9128 24.0921 26.7234C24.1743 26.5425 24.3653 26.3435 24.5378 26.257C24.7234 26.1648 24.8624 26.0133 24.8981 25.8646C24.9349 25.7108 25.0826 25.5548 25.3044 25.4366C25.5235 25.3201 25.6745 25.1624 25.7102 25.0131C25.7459 24.8644 25.8763 24.7282 26.0569 24.649C26.2284 24.5738 26.3913 24.4088 26.4573 24.2431C26.5206 24.0825 26.6986 23.8988 26.876 23.8106C27.0691 23.7139 27.206 23.5652 27.2428 23.4114C27.2753 23.2769 27.3964 23.1288 27.5128 23.083C27.6285 23.0366 27.8206 22.8382 27.9391 22.6414C28.0581 22.4452 28.2577 22.2264 28.3832 22.1563C28.5087 22.0862 28.6559 21.9273 28.71 21.8035C28.7641 21.6791 28.935 21.4977 29.0897 21.3993C29.2445 21.3009 29.4479 21.0878 29.542 20.9261C29.6361 20.7644 29.8103 20.5857 29.9288 20.5297C30.0473 20.4732 30.1885 20.3256 30.2426 20.2013C30.2967 20.0774 30.4676 19.8954 30.6224 19.797C30.7771 19.6986 30.9805 19.4861 31.0746 19.3244C31.1688 19.1627 31.3419 18.9846 31.4587 18.9286C31.5761 18.8732 31.7368 18.6849 31.8163 18.5108C31.8959 18.3372 32.0814 18.1297 32.2286 18.05C32.3757 17.9703 32.5229 17.8171 32.5553 17.7097C32.5883 17.6017 32.7371 17.436 32.8864 17.341C33.0357 17.2461 33.2332 17.0391 33.3251 16.8808C33.4171 16.7225 33.613 16.528 33.7606 16.4483C33.9078 16.3686 34.0555 16.2154 34.0879 16.1074C34.1209 16 34.2697 15.8338 34.419 15.7394C34.5683 15.6444 34.7674 15.4341 34.8616 15.2724C34.9557 15.1107 35.1375 14.9286 35.2651 14.8675C35.3928 14.8071 35.5573 14.6363 35.6303 14.4887C35.7033 14.3412 35.8911 14.1394 36.0469 14.0398C36.2027 13.9409 36.3796 13.7628 36.4396 13.6435C36.5002 13.5248 37.091 12.8463 37.7526 12.1362C38.9374 10.8642 39.1846 10.6895 39.4335 10.9495Z" fill="white"/>
</svg>
