<svg width="50" height="50" viewBox="0 0 50 50" fill="none" xmlns="http://www.w3.org/2000/svg">
<path fill-rule="evenodd" clip-rule="evenodd" d="M1.07059 0.433678C0.324696 0.60753 0.225289 0.710003 0.225289 1.30788C0.225289 2.25559 -1.53022 2.17431 20.2311 2.24004C38.6342 2.29516 39.7494 2.31071 40.0956 2.50788L40.4614 2.71707V5.26407C40.4614 8.47891 40.4628 8.47538 38.4915 10.5566C37.7463 11.3432 36.2748 12.9248 35.2206 14.0711C34.167 15.2181 33.1851 16.2718 33.0397 16.4125C32.8937 16.5531 32.7043 16.7482 32.6191 16.845C32.2059 17.3178 31.9158 17.6287 31.7184 17.8132C31.5993 17.9241 31.2477 18.3107 30.938 18.6725C30.6283 19.0337 29.15 20.6386 27.6535 22.2393C26.1576 23.8393 24.7017 25.4407 24.4184 25.7969C24.135 26.1531 23.4642 26.8952 22.9273 27.4457C22.3903 27.9962 21.8176 28.6323 21.6546 28.8591C21.4916 29.086 21.2617 29.346 21.1447 29.4372C21.027 29.5284 20.8242 29.7362 20.6937 29.898C20.5631 30.0605 20.3603 30.2775 20.2426 30.38C20.1249 30.4831 19.7192 30.91 19.3412 31.3284C18.9625 31.7475 18.0191 32.768 17.2442 33.5962C16.4692 34.4245 15.1762 35.8217 14.3702 36.7001C13.5641 37.5786 12.0581 39.2089 11.0228 40.322C9.98813 41.4351 8.89736 42.6224 8.59982 42.9609C8.30227 43.2987 7.91343 43.7284 7.73626 43.9149C7.21894 44.4612 6.93289 48.7906 7.37312 49.4195C7.53068 49.645 7.87286 49.6485 28.252 49.6485C50.9059 49.6485 49.667 49.686 49.6326 48.999C49.6244 48.8379 49.6116 48.5856 49.6042 48.4386C49.5758 47.8662 50.2209 47.8853 29.2311 47.8231C6.10991 47.7538 8.96634 48.0202 9.03802 45.9383C9.06372 45.1934 9.1354 44.4895 9.19761 44.375C9.25982 44.2598 13.6141 39.6485 18.8739 34.1277C24.1337 28.6061 31.4668 20.9086 35.1699 17.0217C38.8723 13.1347 42.0851 9.72414 42.3089 9.44287L42.716 8.9312V4.83439C42.716 1.16725 42.6964 0.720604 42.5294 0.575728C42.3495 0.419544 1.72721 0.280322 1.07059 0.433678ZM42.0959 0.694455L42.434 0.770075L42.4638 4.79905L42.4935 8.82802L42.2027 9.02732C42.0425 9.13686 41.8261 9.41601 41.7219 9.64781C41.6171 9.87961 41.3926 10.1397 41.2215 10.2252C41.0511 10.31 40.8347 10.5354 40.7414 10.7248C40.6474 10.915 40.4222 11.1503 40.241 11.2478C40.0591 11.346 39.844 11.5715 39.7629 11.7496C39.6811 11.927 39.4748 12.1425 39.3051 12.228C39.1347 12.3128 38.9189 12.5376 38.8249 12.7277C38.7316 12.9171 38.501 13.1552 38.3137 13.2563C38.1257 13.3581 37.9249 13.5722 37.866 13.7326C37.8079 13.893 37.5901 14.1291 37.3818 14.2577C37.1736 14.3856 36.947 14.6202 36.878 14.7793C36.8084 14.9376 36.5988 15.1503 36.4108 15.2513C36.2234 15.3531 35.9908 15.5962 35.8934 15.792C35.7967 15.9884 35.5932 16.2075 35.4417 16.2803C35.2896 16.3524 35.0651 16.5892 34.9427 16.8068C34.8196 17.0245 34.5937 17.2521 34.4402 17.3128C34.2867 17.3743 34.0818 17.5842 33.9844 17.7807C33.8877 17.9764 33.6598 18.2174 33.4786 18.3149C33.2967 18.4132 33.0816 18.6386 33.0005 18.8167C32.9187 18.9941 32.7124 19.2096 32.5427 19.2952C32.3723 19.38 32.1566 19.6047 32.0626 19.7948C31.9692 19.9842 31.7386 20.2224 31.5513 20.3234C31.3633 20.4252 31.1625 20.6393 31.1037 20.7998C31.0455 20.9602 30.8277 21.1962 30.6195 21.3248C30.4112 21.4528 30.1846 21.6874 30.1157 21.8464C30.046 22.0047 29.8364 22.2174 29.6484 22.3185C29.4611 22.4202 29.2284 22.6634 29.1311 22.8591C29.0344 23.0556 28.8308 23.2747 28.6793 23.3475C28.5272 23.4195 28.3034 23.6563 28.1803 23.8733C28.0579 24.0902 27.8388 24.3241 27.6941 24.3934C27.5487 24.4627 27.337 24.6994 27.2234 24.9199C27.1098 25.1404 26.9204 25.3524 26.8035 25.3913C26.6865 25.4301 26.4674 25.6662 26.3172 25.9149C26.1664 26.1637 25.9385 26.4019 25.8101 26.445C25.6809 26.4874 25.4503 26.7298 25.2968 26.9842C25.1433 27.2379 24.9411 27.4457 24.8464 27.4457C24.7524 27.4457 24.5692 27.6337 24.44 27.8626C24.3108 28.0916 24.06 28.3574 23.8821 28.4535C23.7049 28.5496 23.4825 28.7828 23.3891 28.9722C23.2951 29.1623 23.0794 29.387 22.909 29.4718C22.7393 29.5574 22.533 29.7729 22.4512 29.9503C22.37 30.1284 22.155 30.3538 21.9731 30.4521C21.7919 30.5496 21.5687 30.7821 21.4767 30.9672C21.3848 31.1531 21.1305 31.4153 20.9114 31.5503C20.6923 31.6853 20.5124 31.8789 20.5124 31.9807C20.5124 32.0824 20.3332 32.2761 20.1141 32.4111C19.895 32.546 19.6387 32.8118 19.5454 33.0012C19.4514 33.1906 19.2506 33.3948 19.0984 33.4549C18.9463 33.5157 18.7258 33.7305 18.6081 33.9333C18.4905 34.1354 18.2355 34.4019 18.0414 34.5248C17.848 34.6478 17.6418 34.8789 17.5843 35.0372C17.5268 35.1962 17.326 35.4089 17.138 35.5107C16.9507 35.6118 16.7167 35.857 16.6186 36.0549C16.5213 36.2528 16.2954 36.4683 16.1182 36.5326C15.9147 36.6068 15.7524 36.7793 15.6787 36.999C15.6029 37.2273 15.4285 37.4068 15.1762 37.5171C14.9179 37.6294 14.7488 37.8061 14.6684 38.0471C14.5893 38.2846 14.4324 38.4513 14.2139 38.5312C14.0016 38.6082 13.838 38.7771 13.7656 38.9927C13.6912 39.216 13.514 39.3934 13.2489 39.5086C13.0271 39.6054 12.8168 39.78 12.7823 39.8966C12.6586 40.3121 12.5416 40.457 12.2745 40.522C12.1075 40.563 11.9296 40.751 11.8113 41.0118C11.6868 41.2867 11.4982 41.4796 11.2743 41.5609C11.085 41.6301 10.9011 41.7821 10.8666 41.8987C10.7428 42.3149 10.6258 42.4591 10.3587 42.5248C10.191 42.5651 9.9976 42.7701 9.85424 43.057C9.68382 43.399 9.5337 43.5397 9.29296 43.5835C8.87843 43.6584 8.80674 44.0097 8.79795 46.0139C8.79187 47.2521 8.82027 47.4803 9.00691 47.7213L9.22196 47.9998L29.0966 48.0598C40.0273 48.093 48.9834 48.1326 48.9989 48.1482C49.2336 48.3814 48.9868 49.3333 48.675 49.3983C48.2111 49.4952 8.75197 49.4937 8.07438 49.3969L7.55165 49.322V47.1566C7.55165 44.6697 7.51378 44.7884 8.78037 43.3121C9.15839 42.8718 9.46743 42.4471 9.46743 42.3687C9.46743 42.2909 9.62094 42.1559 9.80825 42.069C9.99557 41.9821 10.2221 41.7637 10.3114 41.5835C10.4006 41.4026 10.6515 41.1453 10.8686 41.0118C11.0857 40.8775 11.2939 40.6407 11.3311 40.4853C11.3704 40.322 11.555 40.1248 11.768 40.0188C11.9803 39.9128 12.1974 39.681 12.2806 39.4711C12.3604 39.2704 12.4862 39.1065 12.5612 39.1065C12.7377 39.1065 13.1421 38.6422 13.23 38.3376C13.2679 38.2061 13.4545 38.0372 13.6445 37.9623C13.8596 37.8775 14.0374 37.6945 14.1159 37.4768C14.1916 37.2669 14.3958 37.0506 14.6271 36.9354C14.855 36.8224 15.0626 36.604 15.1357 36.4026C15.2033 36.2153 15.3737 36.0068 15.5143 35.9397C15.6557 35.8725 15.8978 35.6075 16.0526 35.3517C16.2075 35.0952 16.4381 34.8506 16.5652 34.8082C16.6917 34.7665 16.8722 34.5778 16.9656 34.3892C17.0589 34.2005 17.2854 33.9644 17.4693 33.8655C17.6533 33.7658 17.8832 33.5241 17.9806 33.3284C18.0773 33.1319 18.2775 32.9142 18.4255 32.8436C18.573 32.7736 18.7569 32.5574 18.8333 32.3637C18.9104 32.1701 19.1221 31.9171 19.3033 31.8019C19.4852 31.6867 19.73 31.4266 19.8477 31.2245C19.9653 31.0224 20.1919 30.7948 20.3515 30.7185C20.5117 30.6429 20.7153 30.4323 20.8046 30.2521C20.8938 30.0711 21.1116 29.8457 21.2874 29.7503C21.4639 29.6549 21.6728 29.4132 21.7526 29.2125C21.8318 29.0125 22.0441 28.7687 22.224 28.6711C22.4039 28.5743 22.5986 28.3637 22.6574 28.2033C22.7156 28.0429 22.9333 27.8061 23.1416 27.6782C23.3499 27.5496 23.5765 27.315 23.6454 27.1566C23.7151 26.9983 23.922 26.787 24.1066 26.6874C24.2906 26.5877 24.5556 26.2945 24.6949 26.0351C24.8343 25.7757 25.0405 25.5333 25.1534 25.4959C25.2664 25.4584 25.3597 25.3913 25.361 25.3475C25.3617 25.3029 26.4356 24.127 27.7461 22.7347C29.0574 21.3418 30.3699 19.9072 30.6621 19.546C30.9549 19.1856 31.9104 18.1347 32.7855 17.2118C33.6605 16.2881 34.4429 15.4005 34.5241 15.2393C34.6045 15.0775 34.7946 14.881 34.946 14.8026C35.0968 14.7241 35.322 14.493 35.4458 14.2895C35.5702 14.086 35.7859 13.8627 35.9252 13.7941C36.0652 13.7255 36.2762 13.5036 36.3939 13.3008C36.5122 13.098 36.7272 12.8711 36.8726 12.7962C37.018 12.7213 37.2223 12.4824 37.3264 12.2655C37.4305 12.0478 37.6726 11.7708 37.864 11.6485C38.0554 11.527 38.2657 11.3086 38.3313 11.1623C38.3969 11.0167 38.6099 10.7913 38.8046 10.6612C38.9994 10.5312 39.2185 10.3015 39.2909 10.1496C39.3632 9.99834 39.5735 9.77785 39.7581 9.66053C39.9428 9.54322 40.1504 9.27749 40.2193 9.07113C40.2883 8.86407 40.4979 8.51283 40.6853 8.29022L41.0254 7.88527V5.3729C41.0254 2.48597 40.9936 2.37785 40.0766 2.13686C39.7135 2.04145 34.2657 2.004 20.5334 2.004C10.0612 2.004 1.33229 1.97078 1.13551 1.92979C0.647262 1.82732 0.640499 0.835799 1.12739 0.695869C1.48241 0.593396 41.6367 0.591982 42.0959 0.694455ZM0.830522 8.65205L0.477525 8.81248L0.514719 24.5581C0.55394 41.433 0.532301 40.8881 1.12198 40.2718C1.30118 40.0846 1.51893 39.9312 1.60549 39.9312C1.75629 39.9312 2.44808 39.2026 5.69199 35.6309C6.49739 34.7432 7.56247 33.5729 8.05883 33.0301C12.0155 28.698 12.4584 28.2096 13.1394 27.4308C13.485 27.0351 16.5483 23.628 19.2573 20.6259C20.0411 19.7581 20.91 18.7906 21.1887 18.4754C21.4679 18.1609 22.1273 17.4365 22.6541 16.8662C23.1809 16.2959 24.2209 15.1496 24.9648 14.3185C25.7086 13.4874 26.748 12.3446 27.2748 11.7793C27.8016 11.2146 28.6252 10.3178 29.104 9.78703L29.975 8.82166L29.5869 8.65205C29.0222 8.40541 1.37286 8.40541 0.830522 8.65205ZM29.2758 8.8153C29.3759 8.88173 29.2027 9.1418 28.6841 9.70576C28.281 10.1439 27.951 10.5722 27.951 10.6584C27.951 10.7446 27.7732 10.9248 27.5561 11.0584C27.3384 11.1927 27.1078 11.4238 27.0428 11.5722C26.9779 11.7206 26.7744 11.9326 26.5898 12.0436C26.4052 12.1538 26.1671 12.4026 26.0616 12.5955C25.9555 12.7884 25.7512 13.0019 25.6079 13.0704C25.4645 13.1383 25.2758 13.3722 25.1893 13.5899C25.0933 13.8301 24.8999 14.0422 24.6977 14.1298C24.509 14.2111 24.3041 14.4259 24.2256 14.6231C24.1499 14.8146 23.9389 15.0521 23.757 15.1503C23.5751 15.2485 23.3749 15.4817 23.3127 15.669C23.2505 15.8556 23.0253 16.1157 22.8123 16.2471C22.5993 16.3786 22.3782 16.6153 22.3207 16.7736C22.2632 16.9319 22.0739 17.1326 21.9001 17.2195C21.7263 17.3065 21.5024 17.5588 21.4023 17.78C21.3029 18.0012 21.1116 18.2245 20.9777 18.2761C20.8431 18.3284 20.6274 18.5595 20.4969 18.7899C20.367 19.021 20.1141 19.2888 19.9356 19.3849C19.7571 19.4817 19.611 19.616 19.611 19.6839C19.611 19.751 19.1417 20.3043 18.5682 20.9128C16.1473 23.4824 12.6025 27.3962 12.4672 27.6492C12.4097 27.7559 12.1683 28.0372 11.9296 28.274C11.6909 28.5114 11.4961 28.787 11.4961 28.8874C11.4961 28.9877 11.367 29.1036 11.2087 29.1446C11.0478 29.187 10.8206 29.3976 10.6941 29.6217C10.5697 29.8422 10.2951 30.1291 10.0842 30.2591C9.87317 30.3892 9.67098 30.6181 9.63446 30.768C9.59862 30.9178 9.41536 31.1333 9.22669 31.2464C9.03802 31.3595 8.82839 31.6054 8.76076 31.7927C8.6884 31.9934 8.48012 32.2125 8.25696 32.3234C8.03583 32.4337 7.83161 32.6485 7.76872 32.8358C7.70921 33.0132 7.51445 33.2457 7.33593 33.3517C7.15808 33.4584 6.94236 33.6966 6.85783 33.881C6.7733 34.0655 6.56502 34.286 6.39461 34.3715C6.22487 34.4563 6.00712 34.6846 5.9111 34.8782C5.81575 35.0718 5.61558 35.2881 5.46613 35.3588C5.31736 35.4301 5.11719 35.6612 5.02117 35.8725C4.92514 36.0839 4.66885 36.3658 4.45177 36.5001C4.2347 36.6337 4.05753 36.8181 4.05753 36.9093C4.05753 37.0012 3.82896 37.2711 3.55035 37.51C3.27106 37.7489 3.04317 38.0217 3.04317 38.1149C3.04317 38.2089 2.88561 38.3856 2.69356 38.5079C2.50151 38.6301 2.24859 38.8937 2.1316 39.0952C1.90506 39.4846 1.34649 39.6104 1.16188 39.3128C1.0104 39.0683 1.01716 8.91071 1.16796 8.80824C1.34243 8.69021 29.0979 8.69728 29.2758 8.8153ZM48.9117 12.845C48.8204 12.9051 48.6169 12.9552 48.4586 12.9566C48.2382 12.9581 47.7878 13.3722 46.5043 14.7545C43.0311 18.4937 38.9669 22.8528 36.6299 25.346C32.0396 30.2422 28.3392 34.1828 25.8851 36.7884C22.6446 40.2294 22.767 40.0909 22.767 40.3142C22.767 40.4217 22.8258 40.6443 22.8975 40.8089L23.0287 41.1093H28.8024C34.3144 41.1093 34.5984 41.1199 35.0678 41.3418C35.7663 41.6733 48.3322 41.7121 48.9915 41.3856L49.3844 41.1906L49.3012 39.8839C49.2559 39.1651 49.2133 32.7906 49.2072 25.7185C49.1964 12.5927 49.1977 12.6556 48.9117 12.845ZM48.6669 13.6888C48.7704 13.7969 48.8021 17.0308 48.8021 27.5263V41.2224L48.5486 41.2874C48.4086 41.3234 45.4264 41.3376 41.9201 41.3192L35.5459 41.286L35.1773 40.9616L34.8088 40.6379H29.4104C24.7294 40.6379 23.9511 40.6132 23.5616 40.4499L23.1119 40.2619L23.5027 39.8768C23.7178 39.6648 23.8936 39.4146 23.8936 39.3206C23.8936 39.2273 24.0633 39.0662 24.2703 38.963C24.4799 38.8584 24.7064 38.6245 24.7815 38.4351C24.86 38.2372 25.0567 38.0393 25.2522 37.9623C25.4679 37.8775 25.6464 37.6839 25.7512 37.4224C25.8581 37.1559 26.015 36.9877 26.2036 36.9383C26.3828 36.8916 26.562 36.7093 26.6763 36.4598C26.7818 36.228 27.0016 35.9962 27.1943 35.9128C27.3965 35.8252 27.5899 35.6132 27.6846 35.3764C27.7712 35.1609 27.9084 34.9842 27.9896 34.9842C28.1803 34.9842 28.5806 34.527 28.6746 34.2012C28.7152 34.0612 28.8748 33.9142 29.029 33.874C29.198 33.8294 29.382 33.6429 29.4902 33.4061C29.5929 33.18 29.8316 32.9312 30.0474 32.8231C30.2793 32.7079 30.4531 32.5185 30.4977 32.3326C30.5437 32.1404 30.7283 31.9453 31.0056 31.7976C31.2795 31.6521 31.4681 31.4549 31.5128 31.2683C31.5574 31.0824 31.7204 30.9121 31.9462 30.8132C32.1606 30.7192 32.3642 30.5128 32.4467 30.3058C32.5258 30.1051 32.7483 29.8754 32.9701 29.7651C33.2115 29.6443 33.3826 29.4584 33.4286 29.2662C33.4691 29.098 33.6206 28.9128 33.766 28.8556C33.9107 28.7976 34.1508 28.5496 34.2989 28.3036C34.4476 28.0584 34.6972 27.7849 34.8541 27.6973C35.011 27.6097 35.1949 27.4111 35.2625 27.2563C35.3301 27.1008 35.5438 26.874 35.7372 26.751C35.9306 26.628 36.1849 26.3616 36.3026 26.1595C36.4202 25.9574 36.638 25.734 36.7861 25.6641C36.9342 25.5934 37.1107 25.4089 37.1783 25.2535C37.2459 25.0987 37.4596 24.8711 37.653 24.7482C37.8464 24.6252 38.1007 24.3595 38.2183 24.1574C38.336 23.9552 38.5524 23.7326 38.6985 23.6627C38.8452 23.5934 39.0461 23.3581 39.1455 23.1404C39.2449 22.9234 39.4768 22.6641 39.6608 22.5644C39.8447 22.4648 40.0286 22.2733 40.0692 22.139C40.1105 22.004 40.2964 21.7969 40.4831 21.6782C40.6697 21.5595 40.9165 21.3008 41.0315 21.1029C41.1465 20.9051 41.3913 20.6619 41.5759 20.5623C41.7598 20.4627 41.9444 20.2711 41.985 20.1362C42.0262 20.0019 42.2122 19.7941 42.3988 19.6761C42.5855 19.5574 42.8343 19.2945 42.952 19.0923C43.0697 18.8902 43.2969 18.6627 43.4565 18.5863C43.6161 18.5107 43.8216 18.2973 43.9129 18.1128C44.0042 17.9284 44.2389 17.6761 44.4336 17.5517C44.6284 17.428 44.8495 17.2054 44.9246 17.0563C45.0003 16.9079 45.7388 16.0598 46.5658 15.1722C48.0468 13.5821 48.3558 13.3637 48.6669 13.6888Z" fill="black"/>
</svg>
