<svg width="24" height="24" viewBox="0 0 24 24" fill="none" xmlns="http://www.w3.org/2000/svg">
<path d="M20.487 17.1399L16.422 13.4439C16.023 13.0809 15.407 13.0999 15.031 13.4869L12.638 15.9479C12.062 15.8379 10.904 15.4769 9.71204 14.2879C8.52004 13.0949 8.15904 11.9339 8.05204 11.3619L10.511 8.96788C10.899 8.59188 10.917 7.97688 10.554 7.57688L6.85904 3.51288C6.49604 3.11188 5.87904 3.07388 5.46804 3.42588L3.29804 5.28688C3.12504 5.46088 3.02204 5.69088 3.00804 5.93588C2.99304 6.18588 2.70704 12.1079 7.29904 16.7019C11.305 20.7069 16.323 20.9999 17.705 20.9999C17.907 20.9999 18.031 20.9939 18.064 20.9919C18.309 20.9779 18.539 20.8749 18.712 20.7009L20.572 18.5299C20.926 18.1189 20.887 17.5029 20.487 17.1399Z" fill="#056D6D"/>
</svg>
